<?xml version="1.0" encoding="UTF-8" standalone="no"?>
<!DOCTYPE svg PUBLIC "-//W3C//DTD SVG 1.1//EN" "http://www.w3.org/Graphics/SVG/1.1/DTD/svg11.dtd">
<svg width="100%" height="100%" viewBox="0 0 4059 2677" version="1.1" xmlns="http://www.w3.org/2000/svg" xmlns:xlink="http://www.w3.org/1999/xlink" xml:space="preserve" xmlns:serif="http://www.serif.com/" style="fill-rule:evenodd;clip-rule:evenodd;stroke-linejoin:round;stroke-miterlimit:2;">
    <g transform="matrix(1,0,0,1,-5970.97,-3169.4)">
        <g transform="matrix(8.33333,0,0,8.33333,0,0)">
            <g transform="matrix(1,0,0,1,910.197,430.415)">
                <path d="M0,271.063L0,76.942C0,67.211 -3.178,58.962 -9.536,52.18C-15.892,45.401 -23.802,42.008 -33.261,42.008L-123.282,42.008C-132.746,42.008 -140.209,45.461 -145.68,52.364C-151.153,59.275 -153.882,67.869 -153.882,78.15L-153.882,140.299C-153.882,150.585 -151,159.548 -145.232,167.19C-139.463,174.832 -131.842,178.644 -122.376,178.644L-24.763,178.644L-24.321,220.653L-122.045,221.093C-143.27,221.093 -160.515,213.654 -173.781,198.764C-187.047,183.881 -193.68,165.233 -193.68,142.829L-193.68,73.844C-193.68,52.034 -187.122,34.27 -174.001,20.563C-160.888,6.853 -143.865,0 -122.928,0L-33.165,0C-12.238,0 5.153,7.816 19.014,23.438C32.867,39.066 39.797,57.928 39.797,80.037L39.797,271.063L0,271.063Z" style="fill:rgb(153,51,153);fill-rule:nonzero;"/>
            </g>
        </g>
        <g transform="matrix(8.33333,0,0,8.33333,0,0)">
            <g transform="matrix(1,0,0,1,1163.69,651.392)">
                <path d="M0,-271.063L0,-76.942C0,-67.211 -3.178,-58.962 -9.536,-52.18C-15.892,-45.401 -23.802,-42.008 -33.261,-42.008L-123.281,-42.008C-132.746,-42.008 -140.209,-45.461 -145.68,-52.364C-151.153,-59.274 -153.882,-67.869 -153.882,-78.15L-153.882,-140.299C-153.882,-150.585 -151,-159.548 -145.232,-167.19C-139.463,-174.832 -131.842,-178.644 -122.376,-178.644L-24.763,-178.644L-24.321,-220.653L-122.045,-221.093C-143.269,-221.093 -160.515,-213.654 -173.781,-198.764C-187.047,-183.881 -193.68,-165.233 -193.68,-142.829L-193.68,-73.844C-193.68,-52.034 -187.121,-34.27 -174.001,-20.563C-160.888,-6.853 -143.865,0 -122.928,0L-33.165,0C-12.238,0 5.153,-7.816 19.015,-23.438C32.867,-39.066 39.797,-57.928 39.797,-80.037L39.797,-271.063L0,-271.063Z" style="fill:rgb(153,51,153);fill-rule:nonzero;"/>
            </g>
        </g>
    </g>
</svg>
